# xmcd
#
# Track frame offsets: 
#        150
#        14258
#        24899
#        45048
#        58885
#        74121
#        90091
#        108301
#        123445
#        131972
#        148697
#        162681
#        185483
#        205045
#        211677
#
# Disc length: 3063 seconds
#
# Revision: 0
# Processed by: cddbd v1.5.2PL0 Copyright (c) Steve Scherf et al.
# Submitted via: ExactAudioCopy v1.3
#
DISCID=d00bf50f
DTITLE=M.S.G.-The Acoustic Blues Trio - The Flood
DYEAR=2016
DGENRE=Blues
TTITLE0=The Flood
TTITLE1=Money Makes You Crazy
TTITLE2=Going To The River
TTITLE3=Grinnin' In Your Face
TTITLE4=Good While It Lasted
TTITLE5=I'm Down Today
TTITLE6=My Old Ride
TTITLE7=Front Porch Blues
TTITLE8=New Familiar
TTITLE9=I'll Fly Away
TTITLE10=My Little One
TTITLE11=Angel From Montgomery
TTITLE12=Do You See Me Now?
TTITLE13=Amazing Grace
TTITLE14=Glory, Glory Hallelujah
EXTD=
EXTT0=
EXTT1=
EXTT2=
EXTT3=
EXTT4=
EXTT5=
EXTT6=
EXTT7=
EXTT8=
EXTT9=
EXTT10=
EXTT11=
EXTT12=
EXTT13=
EXTT14=
PLAYORDER=
